<svg width="66" height="72" viewBox="0 0 66 72" fill="none" xmlns="http://www.w3.org/2000/svg">
<circle cx="34" cy="38" r="20" fill="#A9A9FF"/>
<ellipse cx="34" cy="52" rx="27" ry="12" fill="#A9A9FF"/>
<path d="M19.4211 17.6907C22.6887 15.3667 26.6847 14 31 14C42.0457 14 51 22.9543 51 34C51 45.0457 42.0457 54 31 54C19.9543 54 11 45.0457 11 34C11 30.1377 12.0948 26.5312 13.991 23.4737" stroke="black" stroke-width="3" stroke-linecap="round"/>
<path d="M40 40.3262C38.0093 43.1531 34.7203 45 31 45C27.2797 45 23.9907 43.1531 22 40.3262" stroke="black" stroke-width="3" stroke-linecap="round"/>
<circle cx="23" cy="30" r="3" fill="black"/>
<circle cx="39" cy="30" r="3" fill="black"/>
</svg>
