<svg width="27" height="27" viewBox="0 0 27 27" fill="none" xmlns="http://www.w3.org/2000/svg">
<g clip-path="url(#clip0_19_27)">
<path d="M23.5485 14.2085L22.7123 6.25236C22.6291 5.46107 22.235 4.73523 21.6167 4.23451C20.9983 3.73379 20.2064 3.49922 19.4151 3.58238L9.46989 4.62767C8.6786 4.71084 7.95276 5.10494 7.45204 5.72327C6.95132 6.34161 6.71675 7.13353 6.79991 7.92482L7.53161 14.8865" stroke="black" stroke-width="1.5" stroke-linecap="round" stroke-linejoin="round"/>
<path d="M14.3352 22.2155L8.36803 22.8427C7.31297 22.9535 6.25708 22.6408 5.43263 21.9732C4.60818 21.3055 4.08272 20.3377 3.97182 19.2827C3.86093 18.2276 4.1737 17.1717 4.84133 16.3473C5.50895 15.5228 6.47674 14.9974 7.5318 14.8865L19.4661 13.6321C18.6793 13.7148 17.9347 14.029 17.3264 14.5349C16.7182 15.0407 16.2736 15.7156 16.0489 16.4742C15.8242 17.2327 15.8295 18.0409 16.0641 18.7964C16.2987 19.5519 16.7521 20.2209 17.3669 20.7188C17.9817 21.2167 18.7304 21.5211 19.5182 21.5934C20.306 21.6658 21.0976 21.503 21.7928 21.1255C22.4881 20.748 23.0558 20.1728 23.4241 19.4727C23.7925 18.7725 23.945 17.9789 23.8623 17.1921L23.5487 14.2085" stroke="black" stroke-width="1.5" stroke-linecap="round" stroke-linejoin="round"/>
</g>
<defs>
<clipPath id="clip0_19_27">
<rect width="24" height="24" fill="white" transform="translate(0.205566 2.58487) rotate(-6)"/>
</clipPath>
</defs>
</svg>
