<svg width="25" height="24" viewBox="0 0 25 24" fill="none" xmlns="http://www.w3.org/2000/svg">
<path d="M22.8491 14L22.8491 6C22.8491 5.20435 22.5331 4.44129 21.9704 3.87868C21.4078 3.31607 20.6448 3 19.8491 3L9.84912 3C9.05347 3 8.29041 3.31607 7.7278 3.87868C7.16519 4.44129 6.84912 5.20435 6.84912 6L6.84912 13" stroke="black" stroke-width="1.5" stroke-linecap="round" stroke-linejoin="round"/>
<path d="M12.8491 21L6.84912 21C5.78826 21 4.77084 20.5786 4.02069 19.8284C3.27055 19.0783 2.84912 18.0609 2.84912 17C2.84912 15.9391 3.27055 14.9217 4.02069 14.1716C4.77084 13.4214 5.78826 13 6.84912 13L18.8491 13C18.058 13 17.2846 13.2346 16.6268 13.6741C15.969 14.1136 15.4564 14.7384 15.1536 15.4693C14.8509 16.2002 14.7716 17.0044 14.926 17.7804C15.0803 18.5563 15.4613 19.269 16.0207 19.8284C16.5801 20.3878 17.2928 20.7688 18.0688 20.9231C18.8447 21.0775 19.6489 20.9983 20.3799 20.6955C21.1108 20.3928 21.7355 19.8801 22.175 19.2223C22.6145 18.5645 22.8491 17.7911 22.8491 17L22.8491 14" stroke="black" stroke-width="1.5" stroke-linecap="round" stroke-linejoin="round"/>
</svg>
