<svg width="72" height="72" viewBox="0 0 72 72" fill="none" xmlns="http://www.w3.org/2000/svg">
<g clip-path="url(#clip0_340_1476)">
<path d="M62.6024 21.8941C52.3396 11.6253 35.6953 11.6204 25.4265 21.8832C15.1576 32.146 17.1006 46.8435 27.3634 57.1123C37.6263 67.3812 48.091 73.8852 58.3598 63.6223C68.6287 53.3595 72.8652 32.163 62.6024 21.8941Z" fill="#FF99D1"/>
<path fill-rule="evenodd" clip-rule="evenodd" d="M11.6948 35.3753C10.5614 35.8072 9.43984 36.243 8.29329 36.6433C7.32203 36.9817 6.2588 36.4661 5.92043 35.4948C5.58205 34.5236 6.09628 33.4616 7.06755 33.1232C8.18114 32.7348 9.26973 32.3109 10.3715 31.8921C11.3335 31.5261 12.4099 32.01 12.776 32.9721C13.1407 33.9328 12.6568 35.0092 11.6948 35.3753Z" fill="#FF99D1"/>
<path fill-rule="evenodd" clip-rule="evenodd" d="M12.2958 25.5742C8.72518 24.258 5.22304 22.7627 1.6827 21.3715C0.72482 20.9956 0.253455 19.9123 0.629291 18.9544C1.00644 17.9978 2.08707 17.5264 3.04495 17.9023C6.56158 19.283 10.0373 20.7704 13.5843 22.076C14.5488 22.4321 15.044 23.5048 14.6879 24.4693C14.3331 25.4351 13.2603 25.9302 12.2958 25.5742Z" fill="#FF99D1"/>
<path fill-rule="evenodd" clip-rule="evenodd" d="M20.6706 14.7963C18.7949 12.1998 16.9877 9.54543 15.0817 6.97134C14.4718 6.14494 14.6461 4.97744 15.4725 4.36494C16.3002 3.75375 17.4677 3.92806 18.0802 4.75446C19.9915 7.34174 21.8079 10.0054 23.6928 12.6137C24.2947 13.448 24.1073 14.6128 23.273 15.2148C22.44 15.8181 21.2725 15.6306 20.6706 14.7963Z" fill="#FF99D1"/>
<path d="M58.66 24.5L62.5 28.5M58.66 24.5C56.6067 26.3333 53.5 32 57.5 40L29 49L45 33M58.66 24.5L54 19.6458M50.5 16L54 19.6458M54 19.6458C52.1667 20.7639 46.7 22.6 39.5 21L33 39M32 56.5H32.5M38 56.5C38 55.5 38.5 53.5 40.5 53.5C43 53.5 41.5 56.5 43.5 56.5C45.5 56.5 45 51 47 51C49 51 51 56.5 52.5 56.5C53.7 56.5 55 55.1667 55.5 54.5" stroke="black" stroke-width="3" stroke-linecap="round" stroke-linejoin="round"/>
</g>
<defs>
<clipPath id="clip0_340_1476">
<rect width="72" height="72" fill="white"/>
</clipPath>
</defs>
</svg>
