<svg width="66" height="32" viewBox="0 0 66 32" fill="none" xmlns="http://www.w3.org/2000/svg">
    <path fill-rule="evenodd" clip-rule="evenodd"
        d="M28.4244 19.3601C28.682 19.2633 28.9304 19.1153 29.1782 18.9673C30.5319 18.2609 32.115 17.4624 33.1907 16.328C34.5977 14.8201 34.9864 13.3277 34.736 11.9442C34.382 9.9974 32.6017 8.24141 30.42 7.34605C28.2563 6.44763 25.7224 6.35168 23.8834 7.45788C22.6206 8.20163 21.6611 9.52749 21.3657 11.5851C21.0177 13.9159 21.9697 15.9191 23.5625 17.5488C24.1646 18.1855 24.8466 18.7029 25.5871 19.2104C24.7773 19.5071 23.9593 19.8053 23.1295 20.1054C20.3966 20.9945 17.468 21.6001 14.6162 21.9283C10.8523 22.4123 7.1454 22.2523 3.44583 21.4047C3.10906 21.3566 2.76991 21.573 2.69108 21.9034C2.61275 22.2337 2.82598 22.5669 3.17152 22.6663C7.01586 23.542 10.8721 23.7294 14.7828 23.2204C17.708 22.8268 20.7305 22.2577 23.5362 21.3034C24.6961 20.8942 25.8339 20.4888 26.9495 20.0343C28.6724 20.9551 30.5202 21.5906 32.0537 21.9099C42.281 23.8619 54.4299 16.9818 62.3532 10.8755C62.6318 10.6695 62.6864 10.2901 62.4727 10.0097C62.2584 9.72929 61.8627 9.6912 61.5841 9.89722C53.9143 15.8018 42.1944 22.5563 32.2937 20.6542C31.1293 20.4304 29.7595 19.9774 28.4244 19.3601ZM27.0138 18.597C27.5455 18.4006 28.0648 18.1538 28.5738 17.8557C29.8079 17.1696 31.2807 16.4958 32.2703 15.4818C33.3337 14.3495 33.6804 13.2334 33.4949 12.2087C33.1976 10.5691 31.6979 9.24062 29.9367 8.5376C28.1494 7.78622 26.0528 7.61573 24.5402 8.56059C23.5632 9.14992 22.8483 10.1701 22.6153 11.7417C22.3337 13.6914 23.1612 15.3458 24.4679 16.6546C25.2025 17.4272 26.0802 18.0697 27.0138 18.597Z"
        fill="#F5FAFE" />
    <path fill-rule="evenodd" clip-rule="evenodd"
        d="M62.3434 10.2441C62.2061 10.5317 61.9789 10.8346 61.7511 11.1375C61.3167 11.7399 60.8423 12.2964 60.6209 12.7567C59.2459 15.5269 57.6317 18.8659 57.1897 21.9522C57.136 22.2783 57.3775 22.6069 57.7235 22.6534C58.069 22.7001 58.3953 22.4861 58.4403 22.1086C58.8705 19.1828 60.4443 16.0087 61.7556 13.3023C62.0007 12.8379 62.5716 12.1597 63.0188 11.5551C63.3937 11.0158 63.6767 10.492 63.7293 10.0076C63.7779 9.73519 63.5964 9.29077 62.9659 9.08145C62.0766 8.81065 59.7404 8.83932 59.5115 8.82558C57.1932 8.69303 55.1429 8.51486 53.4016 6.80483C53.1551 6.5828 52.7547 6.59841 52.5023 6.79996C52.2586 7.05284 52.2671 7.47406 52.5142 7.69601C54.4964 9.62903 56.8173 9.9723 59.4564 10.1029C59.6186 10.0752 61.0133 10.0485 62.0108 10.1952C62.1217 10.229 62.2341 10.21 62.3434 10.2441Z"
        fill="#F5FAFE" />
</svg>