<svg width="18" height="18" viewBox="0 0 18 18" fill="none" xmlns="http://www.w3.org/2000/svg">
<path d="M7.44727 14.5313C7.54627 14.3251 7.62802 14.1466 7.71652 13.9711C7.91827 13.6111 8.09902 13.2398 8.26102 12.8588C8.30683 12.6872 8.41756 12.5401 8.56982 12.4486C8.72208 12.357 8.90394 12.3283 9.07702 12.3683C9.59152 12.4036 10.1098 12.3758 10.646 12.3758V5.91307C10.2845 5.91307 9.92827 5.90032 9.57352 5.91307C9.32677 5.92582 9.23977 5.84782 9.24652 5.59207C9.26377 4.98082 9.24652 4.36657 9.24652 3.72607H14.2693V5.21032C14.2693 5.90782 14.2693 5.90782 13.5673 5.90782H12.8623V12.3728H14.3855C14.9998 12.3728 14.9998 12.3728 14.9998 12.9946V14.2981C14.9998 14.4781 14.9533 14.5696 14.7508 14.5696C12.3665 14.5651 9.98302 14.5636 7.59877 14.5643C7.54785 14.557 7.49748 14.5462 7.44802 14.5321L7.44727 14.5313Z" fill="#666666"/>
<path d="M8.39925 9.84911C8.085 10.4739 7.809 11.0304 7.52025 11.5794C7.49466 11.6109 7.46245 11.6363 7.42589 11.654C7.38933 11.6716 7.34933 11.681 7.30875 11.6814C6.6105 11.6814 5.9085 11.7076 5.21175 11.6574C4.51575 11.6071 4.23675 11.1759 4.51425 10.5159C4.83075 9.75461 5.211 9.01961 5.56275 8.27336C5.5845 8.22611 5.601 8.17811 5.64375 8.07311C5.36175 8.07311 5.11425 8.08061 4.8675 8.07311C4.66624 8.07589 4.46522 8.0583 4.2675 8.02061C4.15812 8.0081 4.05338 7.96939 3.96214 7.90778C3.8709 7.84617 3.79587 7.76347 3.74339 7.66669C3.69092 7.56991 3.66255 7.4619 3.6607 7.35183C3.65885 7.24175 3.68356 7.13285 3.73275 7.03436C4.1565 6.05411 4.62975 5.09411 5.088 4.12961C5.23725 3.81311 5.3925 3.50036 5.5605 3.19361C5.604 3.11336 5.703 3.01211 5.7795 3.00986C6.4335 2.99486 7.0875 3.00236 7.80075 3.00236C7.73925 3.15461 7.70325 3.25961 7.656 3.35786C7.2555 4.16411 6.85425 4.97036 6.4515 5.77511C6.3705 5.93861 6.27225 6.10886 6.576 6.23261C6.657 5.81261 6.984 5.88986 7.2705 5.88986H8.9205C8.85075 6.04811 8.8065 6.15911 8.7555 6.26486C8.2455 7.29236 7.728 8.31236 7.2255 9.33686C7.01925 9.75461 7.089 9.85586 7.56825 9.86036C7.8195 9.85136 8.06925 9.84911 8.39925 9.84911ZM7.50075 12.3774C7.11375 13.1266 6.768 13.8001 6.414 14.4684C6.39331 14.497 6.36646 14.5206 6.33544 14.5375C6.30442 14.5543 6.27002 14.564 6.23475 14.5659C5.28341 14.5543 4.33214 14.537 3.381 14.5141C3.25105 14.4945 3.1234 14.4618 3 14.4166L3.5325 13.3809C3.705 13.0381 3.8745 12.6961 4.0605 12.3706C4.08551 12.3312 4.11892 12.2978 4.15833 12.2728C4.19774 12.2477 4.24219 12.2317 4.2885 12.2259C5.16075 12.2679 6.033 12.3264 6.90525 12.3774C7.08075 12.3849 7.2465 12.3774 7.50075 12.3774Z" fill="#666666"/>
</svg>
