<svg width="32" height="32" viewBox="0 0 32 32" fill="none" xmlns="http://www.w3.org/2000/svg">
<path d="M8.141 26.8431C7.85701 26.954 7.55362 27.0071 7.24871 26.9992C6.65311 26.9839 6.08706 26.7374 5.67123 26.3121C5.2554 25.8868 5.02268 25.3164 5.02268 24.7225C5.02268 24.1287 5.2554 23.5583 5.67123 23.133C6.08706 22.7077 6.65311 22.4611 7.24871 22.4459C7.55362 22.438 7.85701 22.4911 8.141 22.602C8.425 22.7129 8.68384 22.8794 8.90228 23.0915C9.12071 23.3037 9.29431 23.5574 9.41285 23.8375C9.53138 24.1176 9.59245 24.4185 9.59245 24.7225C9.59245 25.0266 9.53138 25.3275 9.41285 25.6076C9.29431 25.8877 9.12071 26.1414 8.90228 26.3536C8.68384 26.5657 8.425 26.7322 8.141 26.8431Z" fill="black"/>
<path d="M25.4672 26.8477C25.6024 26.9023 25.7473 26.9292 25.8932 26.9267C26.5209 26.9267 27 26.4492 27 25.825C27 14.3652 17.6406 5 6.10702 5C5.48084 5 5.00021 5.47755 5.00021 6.10019C4.99733 6.24585 5.02398 6.3906 5.07858 6.52575C5.13318 6.6609 5.2146 6.78366 5.31796 6.88669C5.42132 6.98971 5.54448 7.07086 5.68007 7.12529C5.81566 7.17971 5.96088 7.20628 6.10702 7.2034C16.4246 7.2034 24.7894 15.5772 24.7894 25.8235C24.7865 25.9689 24.8131 26.1134 24.8675 26.2483C24.9219 26.3833 25.0031 26.5059 25.1061 26.6089C25.2091 26.7119 25.3319 26.7931 25.4672 26.8477Z" fill="black"/>
<path d="M17.766 26.8844C17.9014 26.9389 18.0464 26.9656 18.1924 26.963V26.9645C18.7822 26.9645 19.2977 26.4506 19.2977 25.8613C19.2977 18.6269 13.4028 12.7134 6.10697 12.7134C5.48079 12.7134 5.00016 13.1909 5.00016 13.8151C4.99768 13.9605 5.02464 14.1049 5.07943 14.2397C5.13421 14.3745 5.2157 14.4969 5.31901 14.5996C5.42233 14.7023 5.54536 14.7832 5.68074 14.8374C5.81612 14.8917 5.96109 14.9181 6.10697 14.9153C12.1505 14.9153 17.0872 19.8374 17.0872 25.8597C17.0843 26.0053 17.1109 26.1499 17.1654 26.2849C17.2199 26.42 17.3012 26.5427 17.4044 26.6457C17.5076 26.7487 17.6306 26.8299 17.766 26.8844Z" fill="black"/>
</svg>
