<svg width="66" height="72" viewBox="0 0 66 72" fill="none" xmlns="http://www.w3.org/2000/svg">
<path d="M2.5 34.8915C-4.25555 20.5013 19.6633 6.10733 35.6157 6.10733C51.5681 6.10733 64.5 18.9945 64.5 34.8915C64.5 50.7886 61.8468 61.2367 48 65.6073C38.2898 68.6723 32.3336 52.9874 24.5 46.6073C17.1927 40.6559 8 46.6073 2.5 34.8915Z" fill="#FFCB3C"/>
<path d="M20.7379 53.2977C20.2587 53.4848 19.7467 53.5744 19.2322 53.5612C18.2271 53.5354 17.2719 53.1193 16.5702 52.4016C15.8685 51.6839 15.4758 50.7214 15.4758 49.7193C15.4758 48.7172 15.8685 47.7547 16.5702 47.037C17.2719 46.3193 18.2271 45.9032 19.2322 45.8774C19.7467 45.8642 20.2587 45.9538 20.7379 46.1409C21.2172 46.328 21.654 46.6089 22.0226 46.967C22.3912 47.325 22.6841 47.753 22.8842 48.2257C23.0842 48.6984 23.1873 49.2063 23.1873 49.7193C23.1873 50.2323 23.0842 50.7402 22.8842 51.2129C22.6841 51.6856 22.3912 52.1136 22.0226 52.4716C21.654 52.8297 21.2172 53.1106 20.7379 53.2977Z" fill="black"/>
<path d="M49.9759 53.3055C50.2041 53.3976 50.4486 53.443 50.6948 53.4388C51.754 53.4388 52.5625 52.6329 52.5625 51.5797C52.5625 32.2413 36.7685 16.4375 17.3056 16.4375C16.2489 16.4375 15.4379 17.2434 15.4379 18.2941C15.433 18.5399 15.478 18.7841 15.5701 19.0122C15.6622 19.2403 15.7996 19.4474 15.9741 19.6213C16.1485 19.7951 16.3563 19.9321 16.5851 20.0239C16.8139 20.1158 17.059 20.1606 17.3056 20.1557C34.7166 20.1557 48.8321 34.2866 48.8321 51.5771C48.8273 51.8225 48.8721 52.0664 48.9639 52.2941C49.0557 52.5218 49.1927 52.7287 49.3666 52.9025C49.5404 53.0763 49.7476 53.2133 49.9759 53.3055Z" fill="black"/>
<path d="M36.9801 53.3674C37.2086 53.4594 37.4534 53.5045 37.6998 53.5V53.5025C38.695 53.5025 39.5649 52.6355 39.5649 51.6409C39.5649 39.4329 29.6173 29.4539 17.3055 29.4539C16.2488 29.4539 15.4378 30.2597 15.4378 31.313C15.4336 31.5584 15.4791 31.8021 15.5715 32.0295C15.664 32.257 15.8015 32.4636 15.9758 32.6369C16.1502 32.8102 16.3578 32.9466 16.5862 33.0382C16.8147 33.1297 17.0593 33.1744 17.3055 33.1695C27.5039 33.1695 35.8346 41.4757 35.8346 51.6383C35.8297 51.8839 35.8746 52.128 35.9666 52.3559C36.0586 52.5837 36.1957 52.7908 36.3699 52.9646C36.544 53.1384 36.7516 53.2754 36.9801 53.3674Z" fill="black"/>
</svg>
