<svg width="318" height="76" viewBox="0 0 318 76" fill="none" xmlns="http://www.w3.org/2000/svg">
<path d="M26.2148 27.1074L21.5215 27.002C20.291 27.002 18.8672 27.125 17.25 27.3711C17.1797 28.7422 17.0391 30.5176 16.8281 32.6973C16.0898 40.4316 15.7207 45.459 15.7207 47.7793C15.7207 50.0645 15.7559 51.6816 15.8262 52.6309L10.8691 53L12.5039 26.9492L1.27148 26.3164C0.990234 26.3164 0.761719 26.0879 0.585938 25.6309C0.445312 25.1738 0.375 24.752 0.375 24.3652C0.375 23.9785 0.533203 23.5566 0.849609 23.0996C1.16602 22.6426 1.53516 22.4141 1.95703 22.4141C4.52344 22.5195 7.10742 22.6953 9.70898 22.9414C14.5254 23.3633 18.6211 23.5742 21.9961 23.5742L25.2656 23.4688C27.832 23.3984 30.3809 23.1172 32.9121 22.625C33.4746 22.7305 33.8262 23.6094 33.9668 25.2617C34.002 25.6133 34.0195 25.8945 34.0195 26.1055C31.6992 26.7734 29.0977 27.1074 26.2148 27.1074ZM56.168 44.2461C53.5312 48.3945 50.0156 50.9609 45.6211 51.9453C44.6016 52.1562 43.6699 52.2617 42.8262 52.2617C42.0176 52.2617 41.332 52.2617 40.7695 52.2617C40.2422 52.2266 39.6445 52.1387 38.9766 51.998C38.3086 51.8574 37.6934 51.6289 37.1309 51.3125C35.8301 50.5742 35.1797 49.5371 35.1797 48.2012C35.0391 47.5684 34.9688 46.8652 34.9688 46.0918C34.9688 45.2832 35.1445 44.2285 35.4961 42.9277C35.8477 41.627 36.4805 40.2207 37.3945 38.709C38.3438 37.1973 39.4863 35.8086 40.8223 34.543C43.5996 31.8711 46.6055 30.1484 49.8398 29.375C50.7891 29.1641 51.6504 29.0586 52.4238 29.0586C53.2324 29.0586 53.9531 29.1113 54.5859 29.2168C56.625 29.2168 57.9961 30.6055 58.6992 33.3828C59.1562 35.1406 59.4199 37.6016 59.4902 40.7656C59.5957 43.8945 59.6836 46.3203 59.7539 48.043C59.8594 49.7305 60.0879 51.2773 60.4395 52.6836H57.3281C57.1875 51.7344 57.082 50.8906 57.0117 50.1523C56.9414 49.4141 56.8711 48.7285 56.8008 48.0957C56.625 46.6191 56.4141 45.3359 56.168 44.2461ZM55.957 36.0723C55.957 34.0332 54.9551 33.0137 52.9512 33.0137C52.7051 32.9785 52.459 32.9609 52.2129 32.9609C49.6465 32.9609 46.9395 34.1914 44.0918 36.6523C42.7559 37.7773 41.6133 39.043 40.6641 40.4492C39.2578 42.4531 38.5547 44.2461 38.5547 45.8281C38.5547 47.9023 39.75 49.1328 42.1406 49.5195C45.3047 49.4492 48.3281 48.0078 51.2109 45.1953C52.4414 43.9648 53.4609 42.6289 54.2695 41.1875C55.3945 39.2539 55.957 37.5488 55.957 36.0723ZM83.4844 41.4512C83.4844 37.2676 83.2559 34.1914 82.7988 32.2227C83.0801 31.6953 82.6582 31.4316 81.5332 31.4316C80.3379 31.4316 78.791 31.7305 76.8926 32.3281C74.9941 32.9258 73.4473 33.5234 72.252 34.1211C69.4043 35.4922 67.8223 36.8281 67.5059 38.1289V52.4727H63.9727C63.5156 51.2773 63.2871 47.9199 63.2871 42.4004C63.2871 37.4785 63.375 33.8574 63.5508 31.5371C63.7617 29.2168 63.9199 27.8984 64.0254 27.582C64.9395 26.9844 65.6777 26.6855 66.2402 26.6855C67.1191 26.6855 67.5586 27.7227 67.5586 29.7969C67.5586 30.6055 67.5059 31.3965 67.4004 32.1699C67.3301 32.9082 67.2949 33.418 67.2949 33.6992C72.9902 29.5156 77.4023 27.4238 80.5312 27.4238C84.082 27.4238 86.1035 30.2891 86.5957 36.0195C86.8066 38.0234 86.9121 40.8008 86.9121 44.3516L86.8594 48.5176C86.8594 50.0645 86.8945 51.5586 86.9648 53C86.6133 53.2109 86.332 53.3164 86.1211 53.3164C86.0156 53.2812 85.7871 53.2285 85.4355 53.1582C85.084 53.0879 84.627 53.0352 84.0645 53C83.7129 51.5938 83.5195 50.1699 83.4844 48.7285C83.4492 47.252 83.4316 45.8984 83.4316 44.668L83.4844 41.4512ZM105.158 75.5703L104.42 75.5176C103.365 75.5176 102.24 75.5879 101.045 75.7285H99.041C96.9316 75.7285 95.2793 75.3242 94.084 74.5156C93.4512 74.0938 93.1348 73.4609 93.1348 72.6172L105.264 72.0371C108.99 71.9316 110.854 69.9277 110.854 66.0254C110.854 65.8848 110.854 65.6387 110.854 65.2871C110.854 64.9707 110.854 64.25 110.854 63.125L111.117 46.1445C111.117 45.5469 111.1 45.0547 111.064 44.668C105.369 49.9766 99.8848 52.6309 94.6113 52.6309C94.1543 52.6309 93.6973 52.6133 93.2402 52.5781C90.8848 52.5781 89.707 51.541 89.707 49.4668C89.7773 47.8496 90.252 46.0742 91.1309 44.1406C92.0098 42.1719 93.1348 40.291 94.5059 38.498C95.9121 36.6699 97.4941 35.0352 99.252 33.5938C101.959 31.3789 104.578 30.2715 107.109 30.2715C110.062 30.2715 112.488 31.8359 114.387 34.9648C114.949 43.332 115.23 49.2734 115.23 52.7891C115.23 56.3047 115.178 59.1875 115.072 61.4375C114.967 63.6875 114.721 65.7441 114.334 67.6074C113.982 69.4707 113.508 70.9473 112.91 72.0371C112.312 73.127 111.609 73.918 110.801 74.4102C109.465 75.1836 107.584 75.5703 105.158 75.5703ZM108.322 34.1211C107.9 33.9805 107.303 33.9102 106.529 33.9102C105.791 33.9102 104.824 34.2266 103.629 34.8594C102.434 35.4922 101.291 36.3184 100.201 37.3379C99.1113 38.3223 98.0918 39.4297 97.1426 40.6602C94.8223 43.6836 93.6621 46.0918 93.6621 47.8848C93.6621 48.4473 93.8203 48.8691 94.1367 49.1504C94.3828 49.291 94.6816 49.3613 95.0332 49.3613C95.4199 49.3613 95.9648 49.3086 96.668 49.2031C97.3711 49.0625 98.3203 48.7461 99.5156 48.2539C100.746 47.7266 102.012 47.0586 103.312 46.25C104.613 45.4414 105.791 44.5449 106.846 43.5605C109.307 41.3105 110.537 39.1133 110.537 36.9688C110.537 35.668 109.799 34.7188 108.322 34.1211ZM178.195 44.2461C179.953 38.5508 181.992 28.1445 184.312 13.0273C186.527 13.0273 187.688 13.7129 187.793 15.084C187.828 15.5059 187.846 15.8047 187.846 15.9805C187.881 16.1563 187.828 16.7715 187.688 17.8262C187.547 18.8457 187.336 20.2871 187.055 22.1504C186.809 24.0137 186.492 26.1758 186.105 28.6367C185.719 31.0977 185.279 33.6641 184.787 36.3359C183.592 42.6289 182.361 47.9375 181.096 52.2617C179.83 53.1406 178.846 53.2812 178.143 52.6836C177.826 52.3672 177.545 51.9453 177.299 51.418C177.053 50.8555 176.771 50.2227 176.455 49.5195C175.998 48.9219 175.154 47.3398 173.924 44.7734C172.693 42.207 171.691 40.168 170.918 38.6562C170.18 37.1445 169.459 35.7383 168.756 34.4375C167.139 31.5195 165.785 29.8145 164.695 29.3223C163.43 31.291 161.18 36.6875 157.945 45.5117C157.383 47.0586 156.873 48.5 156.416 49.8359C155.959 51.1367 155.572 52.1914 155.256 53L151.986 52.8418L138.803 22.3613C138.732 22.1855 138.697 22.0098 138.697 21.834C138.697 21.6582 138.75 21.4824 138.855 21.3066C138.996 21.1309 139.225 20.9727 139.541 20.832C140.139 20.6211 140.736 20.5156 141.334 20.5156C141.932 20.5156 142.354 20.6387 142.6 20.8848C142.881 21.0957 143.092 21.377 143.232 21.7285C143.408 22.0801 143.549 22.4668 143.654 22.8887C143.76 23.3105 143.953 23.8555 144.234 24.5234C144.551 25.1914 144.99 26.1758 145.553 27.4766C146.15 28.7773 146.783 30.1484 147.451 31.5898C148.119 33.0312 148.787 34.4727 149.455 35.9141C150.123 37.3203 150.756 38.6211 151.354 39.8164C152.619 42.4531 153.41 43.9297 153.727 44.2461C157.805 34.1914 160.318 28.2324 161.268 26.3691C162.217 24.4707 162.814 23.3105 163.061 22.8887C163.447 22.291 163.746 21.9922 163.957 21.9922C165.469 21.9922 168.018 25.3672 171.604 32.1172C172.588 33.9102 173.502 35.6328 174.346 37.2852C176.42 41.293 177.703 43.6133 178.195 44.2461ZM200.924 49.3086C204.018 49.3086 208.676 47.9023 214.898 45.0898C215.285 45.0898 215.602 45.2305 215.848 45.5117C216.094 45.7578 216.217 46.0566 216.217 46.4082C214.811 48.7988 212.121 50.6621 208.148 51.998C204.176 53.334 200.467 53.5625 197.021 52.6836C193.119 51.6641 190.746 49.4668 189.902 46.0918C189.832 45.4238 189.797 44.5273 189.797 43.4023C189.797 42.2773 190.078 40.8008 190.641 38.9727C191.238 37.1094 192.24 35.3516 193.646 33.6992C195.053 32.0469 196.705 30.7461 198.604 29.7969C200.502 28.8477 202.523 28.373 204.668 28.373C206.707 28.373 208.992 29.0762 211.523 30.4824C212.719 31.1504 213.668 31.9062 214.371 32.75C215.074 33.5938 215.426 34.4551 215.426 35.334C215.426 35.5801 215.408 35.8262 215.373 36.0723C215.303 38.2168 214.266 39.5703 212.262 40.1328C211.383 40.3789 210.363 40.502 209.203 40.502L201.609 40.1855C199.078 40.1855 197.145 40.7305 195.809 41.8203C195.035 42.418 194.49 43.3145 194.174 44.5098C195.053 47.709 197.303 49.3086 200.924 49.3086ZM210.311 33.0137C209.537 32.4512 208.729 32.0469 207.885 31.8008C207.041 31.5547 206.338 31.4316 205.775 31.4316C205.213 31.4316 204.299 31.625 203.033 32.0117C201.768 32.3633 200.643 32.7676 199.658 33.2246C197.232 34.3496 196.02 35.5273 196.02 36.7578C198.832 37.0039 200.941 37.127 202.348 37.127C206.25 37.127 208.887 36.793 210.258 36.125C211.102 35.7734 211.523 35.334 211.523 34.8066C211.523 34.1738 211.119 33.5762 210.311 33.0137ZM224.127 28.2148C224.584 34.7891 224.971 42.4004 225.287 51.0488C225.076 52.1387 224.232 52.6836 222.756 52.6836C222.369 52.6836 221.965 52.6133 221.543 52.4727C221.156 52.2969 220.91 52.0684 220.805 51.7871V28.2148H224.127ZM219.223 21.043C219.223 19.8125 219.943 19.1973 221.385 19.1973C222.334 19.1973 223.107 19.4082 223.705 19.8301C223.811 20.2168 223.863 20.6035 223.863 20.9902C223.863 21.3418 223.723 21.6934 223.441 22.0449C223.16 22.3965 222.738 22.5723 222.176 22.5723C221.613 22.5723 221.051 22.4492 220.488 22.2031C219.926 21.9219 219.504 21.5352 219.223 21.043ZM235.254 63.5469C235.254 69.418 233.707 72.3535 230.613 72.3535C230.297 72.3535 229.893 72.3359 229.4 72.3008C228.943 72.3008 228.24 72.2305 227.291 72.0898C226.377 71.9844 225.445 71.7734 224.496 71.457C222.211 70.6836 220.752 69.5586 220.119 68.082C220.119 67.9766 220.207 67.7305 220.383 67.3438C220.699 66.6406 220.857 66.2363 220.857 66.1309C222.018 67.0098 223.266 67.8359 224.602 68.6094C225.938 69.3828 227.361 69.7695 228.873 69.7695C229.893 69.7695 230.701 69.0312 231.299 67.5547C231.861 66.2891 232.143 65.0234 232.143 63.7578C232.143 60.3477 231.896 55.918 231.404 50.4688C230.701 42.2773 230.35 37.0742 230.35 34.8594C230.35 32.6094 230.385 30.7812 230.455 29.375C230.35 28.5312 230.736 27.8984 231.615 27.4766C232.283 27.1602 233.021 27.002 233.83 27.002C233.514 29.1816 233.355 30.9043 233.355 32.1699C233.355 33.4355 233.355 34.7539 233.355 36.125C233.391 37.4609 233.496 39.4297 233.672 42.0312C233.883 44.6328 234.111 47.2344 234.357 49.8359C234.955 55.4961 235.254 60.0664 235.254 63.5469ZM231.932 15.7168C232.494 16.1035 232.775 16.7188 232.775 17.5625C232.775 18.4062 232.459 18.916 231.826 19.0918C231.791 19.0918 231.65 19.0918 231.404 19.0918C231.193 19.0918 230.824 18.8633 230.297 18.4062C230.297 17.2812 230.561 16.4727 231.088 15.9805C231.299 15.8047 231.58 15.7168 231.932 15.7168ZM236.889 45.9863C236.889 45.4238 236.836 44.6504 236.73 43.666C236.66 42.6465 236.59 41.5391 236.52 40.3438C236.449 39.1484 236.414 37.9355 236.414 36.7051C236.414 35.4746 236.52 34.3496 236.73 33.3301C237.188 31.0449 238.137 29.9023 239.578 29.9023C240.562 30.1836 241.213 30.5352 241.529 30.957C241.881 31.3789 242.057 31.9062 242.057 32.5391C242.057 33.1367 241.898 33.8926 241.582 34.8066C240.422 37.8652 239.842 40.625 239.842 43.0859C239.842 43.8945 239.895 44.7559 240 45.6699C240.562 48.0254 242.496 49.2031 245.801 49.2031C247.523 49.2031 249.158 48.9043 250.705 48.3066C253.658 47.2168 255.662 45.9336 256.717 44.457C257.033 42.8398 257.191 41.4336 257.191 40.2383C257.191 39.0078 257.139 37.918 257.033 36.9688C256.963 36.0195 256.857 34.9824 256.717 33.8574C256.611 32.6973 256.541 31.4316 256.506 30.0605C256.963 29.8496 257.402 29.7441 257.824 29.7441C258.281 29.7441 258.738 29.9727 259.195 30.4297C259.688 30.8867 260.092 31.748 260.408 33.0137C260.76 34.2793 260.988 35.7734 261.094 37.4961C261.199 39.1836 261.252 40.9414 261.252 42.7695C261.287 44.5977 261.305 46.373 261.305 48.0957C261.305 49.7832 261.375 51.2422 261.516 52.4727C261.094 52.8594 260.689 53.0527 260.303 53.0527C258.896 53.0527 257.859 51.6465 257.191 48.834C256.734 49.2207 255.961 49.6953 254.871 50.2578C252.551 51.5234 249.809 52.3672 246.645 52.7891C246.047 52.8594 245.379 52.8945 244.641 52.8945C243.902 52.8945 242.971 52.7539 241.846 52.4727C240.756 52.1914 239.719 51.541 238.734 50.5215C237.75 49.502 237.135 47.9902 236.889 45.9863ZM285.299 44.2461C282.662 48.3945 279.146 50.9609 274.752 51.9453C273.732 52.1562 272.801 52.2617 271.957 52.2617C271.148 52.2617 270.463 52.2617 269.9 52.2617C269.373 52.2266 268.775 52.1387 268.107 51.998C267.439 51.8574 266.824 51.6289 266.262 51.3125C264.961 50.5742 264.311 49.5371 264.311 48.2012C264.17 47.5684 264.1 46.8652 264.1 46.0918C264.1 45.2832 264.275 44.2285 264.627 42.9277C264.979 41.627 265.611 40.2207 266.525 38.709C267.475 37.1973 268.617 35.8086 269.953 34.543C272.73 31.8711 275.736 30.1484 278.971 29.375C279.92 29.1641 280.781 29.0586 281.555 29.0586C282.363 29.0586 283.084 29.1113 283.717 29.2168C285.756 29.2168 287.127 30.6055 287.83 33.3828C288.287 35.1406 288.551 37.6016 288.621 40.7656C288.727 43.8945 288.814 46.3203 288.885 48.043C288.99 49.7305 289.219 51.2773 289.57 52.6836H286.459C286.318 51.7344 286.213 50.8906 286.143 50.1523C286.072 49.4141 286.002 48.7285 285.932 48.0957C285.756 46.6191 285.545 45.3359 285.299 44.2461ZM285.088 36.0723C285.088 34.0332 284.086 33.0137 282.082 33.0137C281.836 32.9785 281.59 32.9609 281.344 32.9609C278.777 32.9609 276.07 34.1914 273.223 36.6523C271.887 37.7773 270.744 39.043 269.795 40.4492C268.389 42.4531 267.686 44.2461 267.686 45.8281C267.686 47.9023 268.881 49.1328 271.271 49.5195C274.436 49.4492 277.459 48.0078 280.342 45.1953C281.572 43.9648 282.592 42.6289 283.4 41.1875C284.525 39.2539 285.088 37.5488 285.088 36.0723ZM312.615 41.4512C312.615 37.2676 312.387 34.1914 311.93 32.2227C312.211 31.6953 311.789 31.4316 310.664 31.4316C309.469 31.4316 307.922 31.7305 306.023 32.3281C304.125 32.9258 302.578 33.5234 301.383 34.1211C298.535 35.4922 296.953 36.8281 296.637 38.1289V52.4727H293.104C292.646 51.2773 292.418 47.9199 292.418 42.4004C292.418 37.4785 292.506 33.8574 292.682 31.5371C292.893 29.2168 293.051 27.8984 293.156 27.582C294.07 26.9844 294.809 26.6855 295.371 26.6855C296.25 26.6855 296.689 27.7227 296.689 29.7969C296.689 30.6055 296.637 31.3965 296.531 32.1699C296.461 32.9082 296.426 33.418 296.426 33.6992C302.121 29.5156 306.533 27.4238 309.662 27.4238C313.213 27.4238 315.234 30.2891 315.727 36.0195C315.938 38.0234 316.043 40.8008 316.043 44.3516L315.99 48.5176C315.99 50.0645 316.025 51.5586 316.096 53C315.744 53.2109 315.463 53.3164 315.252 53.3164C315.146 53.2812 314.918 53.2285 314.566 53.1582C314.215 53.0879 313.758 53.0352 313.195 53C312.844 51.5938 312.65 50.1699 312.615 48.7285C312.58 47.252 312.562 45.8984 312.562 44.668L312.615 41.4512Z" fill="black"/>
<path fill-rule="evenodd" clip-rule="evenodd" d="M311.019 66.5318C250.352 60.7756 188.659 63.9595 127.839 62.923C87.6213 62.2296 47.401 60.5594 7.21279 60.0002C6.00789 59.9853 5.01693 60.9694 5.0002 62.2072C4.98419 63.4449 5.94898 64.459 7.15315 64.4739C47.337 65.0331 87.5529 66.7033 127.766 67.3968C188.477 68.4332 250.054 65.2419 310.612 70.9906C311.812 71.1025 312.875 70.2003 312.991 68.97C313.1 67.7397 312.212 66.6511 311.019 66.5318Z" fill="black"/>
</svg>
