<svg width="340" height="55" viewBox="0 0 340 55" fill="none" xmlns="http://www.w3.org/2000/svg">
<path d="M19.125 20.4331C19.125 20.4331 24.6494 20.6318 35.6982 21.0291C46.7591 21.4265 59.3569 21.7697 73.4917 22.0586C87.6385 22.3356 103.153 22.5764 120.035 22.7811C136.929 22.9858 154.131 23.1604 171.642 23.3049C189.165 23.4494 205.4 23.5758 220.345 23.6842C235.279 23.7805 248.772 23.8829 260.825 23.9912C272.891 24.0876 283.443 24.0334 292.483 23.8287C301.535 23.624 309.54 23.1724 316.499 22.4741C323.469 21.7757 327.645 21.5409 329.024 21.7697C330.392 21.9864 331.693 22.4199 332.927 23.0701C334.161 23.7203 335.256 24.5511 336.213 25.5626C337.169 26.574 337.943 27.7059 338.536 28.9581C339.117 30.2225 339.48 31.547 339.625 32.9317C339.77 34.2923 339.698 35.653 339.407 37.0136C339.105 38.3622 338.591 39.6325 337.864 40.8246C337.15 42.0046 336.261 43.0461 335.196 43.9492C334.131 44.8403 332.951 45.5447 331.656 46.0624C330.361 46.5802 329.018 46.8752 327.626 46.9474C326.235 47.0197 324.867 46.8692 323.524 46.4959C322.181 46.1226 320.928 45.5447 319.766 44.762C318.617 43.9793 317.624 43.0401 316.789 41.9444C315.942 40.8366 315.295 39.6265 314.847 38.314C314.411 36.9895 314.194 35.6349 314.194 34.2502C314.194 32.8775 314.417 31.5349 314.865 30.2225C315.313 28.91 315.954 27.6999 316.789 26.5921C317.637 25.4843 318.641 24.5451 319.803 23.7745C320.952 22.9918 322.199 22.4199 323.542 22.0586C324.885 21.6854 326.253 21.5349 327.645 21.6071C329.036 21.6914 330.38 21.9864 331.674 22.4921C332.969 23.0099 334.149 23.7203 335.214 24.6234C336.279 25.5265 337.169 26.568 337.883 27.748C338.597 28.9401 339.105 30.2164 339.407 31.5771C339.71 32.9257 339.783 34.2863 339.625 35.659C339.468 37.0317 339.099 38.3501 338.518 39.6144C337.925 40.8667 337.15 41.9986 336.194 43.01C335.238 44.0094 334.143 44.8342 332.909 45.4844C331.674 46.1347 330.367 46.5742 328.988 46.8029C327.62 47.0197 326.937 47.128 326.937 47.128C326.937 47.128 323.451 46.7728 316.481 46.0624C309.51 45.34 301.499 44.8643 292.447 44.6356C283.407 44.4068 272.86 44.3165 260.807 44.3646C248.766 44.4248 235.273 44.5031 220.327 44.5994C205.394 44.7078 189.165 44.8282 171.642 44.9607C154.119 45.1052 136.91 45.2677 120.016 45.4483C103.123 45.641 87.5961 45.8637 73.4372 46.1166C59.2783 46.3574 46.6683 46.6404 35.6074 46.9655C24.5465 47.2906 18.4836 47.3869 17.4186 47.2545C16.3295 47.122 15.2766 46.8631 14.2601 46.4778C13.2436 46.0805 12.2875 45.5748 11.392 44.9607C10.4965 44.3345 9.68568 43.6121 8.95958 42.7933C8.23348 41.9865 7.62235 41.1015 7.12618 40.1382C6.61791 39.175 6.23671 38.1635 5.98258 37.1039C5.71634 36.0443 5.58927 34.9787 5.60138 33.907C5.60138 32.8233 5.73449 31.7517 6.00073 30.6921C6.26697 29.6445 6.65422 28.6391 7.16249 27.6758C7.67076 26.7125 8.28794 25.8275 9.01404 25.0207C9.75224 24.2019 10.5691 23.4855 11.4646 22.8714C12.3601 22.2573 13.3222 21.7636 14.3509 21.3904C15.3674 21.0051 16.4203 20.7462 17.5094 20.6137C18.5865 20.4933 19.125 20.4331 19.125 20.4331Z" fill="#EF74B8"/>
<path d="M189.795 1.00664C189.111 1.62583 188.302 3.23571 187.928 4.59792C186.248 11.0994 178.718 27.0125 177.536 26.5171C177.162 26.3933 176.913 23.7927 176.913 20.6348C176.913 14.7526 176.229 12.9569 174.113 12.9569C172.744 12.9569 171.997 13.8857 171.064 16.7959C170.628 18.0343 169.197 20.8206 167.766 22.9258C164.467 28.0651 164.156 27.384 163.721 14.9383C163.472 7.44618 163.16 4.96943 162.414 4.10257C161.169 2.67844 160.111 2.74036 158.555 4.41216C157.124 5.96013 157.062 7.87961 158.431 16.0529C158.804 18.2819 159.24 22.802 159.427 26.1456C159.738 32.5232 160.298 34.0093 162.538 34.0093C164.156 33.9474 165.027 33.2663 168.388 29.1796C171.375 25.6503 172.246 25.2168 172.246 27.3221C172.246 29.5511 174.424 32.5232 176.602 33.3282C178.531 33.9474 178.78 33.8854 180.585 31.966C183.074 29.3035 185.937 23.9785 188.675 16.8578C189.857 13.8238 191.662 9.55141 192.72 7.5081C194.898 3.17379 195.022 2.30693 193.653 0.94472C192.409 -0.355571 191.351 -0.293653 189.795 1.00664Z" fill="black"/>
<path d="M24.7599 2.49264C17.6657 3.11183 9.51348 4.59788 4.53504 6.20776C1.29906 7.3223 0.365604 7.87956 0.116682 9.05602C-0.19447 10.1706 0.116682 10.9755 1.05014 11.9043L2.35698 13.2046L5.59296 11.5947C9.88686 9.48945 18.3502 7.56997 19.3459 8.56067C19.7815 8.9941 19.9682 12.7711 19.8437 20.2633C19.657 31.904 20.1549 34.6284 22.333 34.6284C22.9553 34.6284 23.8887 34.0092 24.3866 33.2043C25.1956 32.0278 25.1956 30.7895 24.6977 25.3406C23.8887 17.3531 24.1376 8.9941 25.2578 7.87956C25.8179 7.3223 28.7427 7.0127 35.028 6.88887C44.0514 6.70311 44.0514 6.70311 44.0514 5.21706C44.0514 1.87346 39.2596 1.19235 24.7599 2.49264Z" fill="black"/>
<path d="M224.893 4.41249C223.213 6.7654 226.449 9.86133 230.743 9.86133C233.294 9.86133 233.17 8.62296 230.369 5.52702C227.818 2.74068 226.262 2.43109 224.893 4.41249Z" fill="black"/>
<path d="M237.588 3.97873C236.344 5.46478 237.402 7.87961 240.078 9.55141C242.629 11.1613 245.678 11.5947 245.678 10.4183C245.678 10.0468 245.056 8.93223 244.309 8.00345C243.5 7.01275 242.38 5.5267 241.758 4.65984C240.513 2.8642 238.771 2.55461 237.588 3.97873Z" fill="black"/>
<path d="M206.722 13.2049C201.93 15.3101 196.516 23.6691 196.516 28.8703C196.516 34.0095 202.801 39.3965 209.585 40.0776C212.883 40.3872 220.786 38.7773 223.151 37.3532C224.831 36.2386 225.08 33.3904 223.462 33.3904C222.84 33.3904 219.977 34.0095 217.052 34.7526C211.078 36.2386 208.464 36.0529 205.166 33.8238C201.37 31.2851 200.125 27.6938 202.055 24.7218C202.552 23.9787 203.05 24.0406 205.104 25.2171C208.029 26.827 212.509 27.0127 215.185 25.6505C219.728 23.2976 220.973 18.2822 217.737 14.6909C216.243 12.9572 215.559 12.7095 212.323 12.5238C210.082 12.3999 207.904 12.6476 206.722 13.2049ZM214.501 18.1584C215.559 19.211 214.999 20.1398 212.572 21.3781C211.016 22.1831 210.207 22.245 207.655 21.6258C204.979 20.9447 204.668 20.759 205.353 19.8921C207.904 16.8581 212.323 15.9912 214.501 18.1584Z" fill="black"/>
<path d="M89.4175 16.7959L86.0571 20.6349L85.746 17.9724C85.4348 15.1861 84.128 13.7 82.51 14.3192C81.8254 14.6288 81.5143 16.4244 81.1409 22.3067C80.7675 29.3035 80.8297 29.9846 81.9499 31.0991C82.5722 31.7803 83.3812 32.1518 83.6923 31.966C84.0657 31.7183 85.3726 29.7989 86.6794 27.5698C87.924 25.4026 90.1021 22.5544 91.4089 21.2541C93.7114 19.025 93.8359 18.9631 95.0183 20.0157C95.7651 20.6968 96.4496 22.6163 96.8852 25.093C97.6942 29.6131 99.3122 33.3901 100.432 33.3901C102.237 33.3901 102.61 31.7183 101.615 27.9413C101.117 25.898 100.681 23.4212 100.681 22.4305C100.681 20.0776 99.5611 16.8579 98.0676 14.6288C97.1341 13.3904 96.3251 12.957 94.8316 12.957C93.0891 12.957 92.2801 13.5762 89.4175 16.7959Z" fill="black"/>
<path d="M327.013 16.7959L323.528 20.6968L323.466 18.4677C323.466 15.8052 322.221 14.0096 320.603 14.3192C319.545 14.5049 319.359 15.3099 318.861 22.1209C318.425 28.9939 318.425 29.8608 319.421 30.9134C320.043 31.5945 320.728 32.1518 320.977 32.1518C321.226 32.1518 322.595 30.2942 323.964 27.9413C325.333 25.6503 327.635 22.6782 329.067 21.316L331.618 18.8393L332.8 20.2015C333.423 21.0064 334.232 23.4212 334.605 25.5884C335.352 29.7989 336.97 33.3901 338.152 33.3901C339.708 33.3901 340.455 31.6564 339.708 29.5512C339.272 28.4366 338.712 25.4646 338.401 22.9259C337.966 19.9538 337.219 17.3532 336.223 15.6195C334.854 13.3285 334.356 12.957 332.552 12.957C330.809 12.957 329.938 13.5762 327.013 16.7959Z" fill="black"/>
<path d="M54.3192 14.8145C52.39 15.6194 47.8472 19.706 46.9137 21.5636C45.358 24.5976 45.1713 27.0124 46.2914 29.4273C49.154 35.3714 55.7505 35.4334 62.4091 29.4892L65.894 26.4552L69.4412 30.2322C72.9883 34.0092 74.5441 34.6903 77.2822 33.6377C78.2779 33.2662 78.7135 30.9133 77.78 30.9133C76.3487 30.9133 71.9304 26.0837 69.8768 22.4305C68.5699 20.1395 66.5786 17.3531 65.3962 16.2386C63.467 14.381 62.907 14.1953 59.4221 14.2572C57.3062 14.2572 55.0037 14.5049 54.3192 14.8145ZM62.5958 20.511C61.1645 27.0744 53.2613 31.6563 50.5231 27.5078C49.2785 25.6502 49.7141 24.3499 52.5145 21.4398C54.8792 19.0249 57.244 18.0342 60.9156 17.9723L63.2181 17.9104L62.5958 20.511Z" fill="black"/>
<path d="M255.759 14.9384C254.701 16.2387 254.141 24.2881 255.012 26.7648C255.884 29.4893 259.742 32.709 262.729 33.2044C265.281 33.5759 268.454 32.6471 271.628 30.48C272.997 29.5512 274.055 29.1797 274.179 29.6131C275.175 32.5852 279.407 34.1951 279.78 31.7183C279.905 30.9753 279.531 29.5512 279.033 28.4986C277.851 26.3314 277.789 23.2355 278.722 20.4491C279.282 18.9631 279.282 18.0343 278.722 16.9198C277.727 14.6907 275.424 15.1241 274.74 17.6009C273.682 21.1922 271.628 24.7835 269.512 26.5791C266.587 29.1797 262.542 29.2416 260.613 26.7029C259.431 25.2788 259.306 24.5358 259.68 21.6256C260.489 14.505 260.489 14.505 258.373 14.3192C257.315 14.1954 256.133 14.505 255.759 14.9384Z" fill="black"/>
<path d="M291.231 15.2479C288.057 16.7959 283.825 21.8732 283.328 24.6596C282.519 29.3654 286.252 34.0093 290.857 34.0093C293.596 34.0093 298.885 31.161 301.25 28.4366L303.304 26.0218L306.602 29.675C309.962 33.5139 311.767 34.4427 314.443 33.7616C316.247 33.3282 316.559 31.161 314.941 30.6038C312.825 29.9226 309.713 26.5171 307.473 22.3686C306.228 20.0776 304.175 17.2912 302.992 16.1767C301.063 14.3811 300.441 14.1953 297.081 14.1953C294.84 14.1953 292.413 14.6287 291.231 15.2479ZM300.441 19.4584C300.441 21.8113 298.263 25.6503 296.085 27.1982C295.027 27.9413 293.098 28.6843 291.791 28.87C289.675 29.1796 289.239 28.9939 288.306 27.6317C287.124 25.7741 287.373 24.5357 289.737 21.7494C291.542 19.5822 295.151 17.9723 298.45 17.9104C300.192 17.9104 300.441 18.0962 300.441 19.4584Z" fill="black"/>
<path d="M112.194 16.3006C107.526 18.4678 104.726 21.6876 104.726 24.7835C104.726 26.9506 105.099 27.6317 107.402 29.7989L110.078 32.2137L115.305 32.028C121.466 31.7803 121.155 31.1611 119.661 40.6966C118.417 48.9318 117.11 49.9844 113.376 46.0216C111.074 43.6687 108.522 43.2972 107.34 45.2166C105.846 47.5695 108.335 50.2321 116.114 54.6902C118.852 56.3001 122.026 51.4704 123.084 44.0402C124.018 37.1672 125.884 30.1704 127.751 26.5172C130.178 21.7495 129.68 19.7681 126.133 19.7681C125.262 19.7681 124.578 20.6349 123.706 22.4925C122.275 25.8361 120.47 27.1364 116.425 27.5698C113.749 27.9413 113.127 27.7556 111.509 26.3934C109.393 24.5358 109.705 23.4832 113.189 21.1303C114.932 19.8919 115.803 19.7062 118.23 20.0157C121.404 20.4492 122.151 19.9538 121.528 17.8486C121.093 16.6102 117.857 14.8146 116.114 14.8146C115.679 14.8146 113.936 15.4957 112.194 16.3006Z" fill="black"/>
<path d="M243.936 17.2295C243.251 17.601 243.313 18.9633 244.371 24.474C247.11 39.706 247.67 45.2787 246.612 46.9505C245.243 49.1796 236.157 45.2787 234.85 41.997C233.979 39.5822 230.805 39.6441 229.498 42.1208C228.44 44.1022 229.996 46.0836 234.726 48.7461C242.069 52.9566 248.167 53.6377 250.345 50.5418C251.59 48.7461 251.528 43.6688 250.034 33.3903C248.541 22.6784 247.732 19.149 246.487 17.7868C245.367 16.5484 245.056 16.4865 243.936 17.2295Z" fill="black"/>
<path d="M227.196 24.1023C227.569 31.0991 228.502 34.0093 230.369 34.0093C232.112 34.0093 232.485 29.675 231.303 23.2354C230.432 18.4677 229.996 17.6628 228.254 17.4151L226.822 17.1674L227.196 24.1023Z" fill="black"/>
</svg>
