<svg width="18" height="18" viewBox="0 0 18 18" fill="none" xmlns="http://www.w3.org/2000/svg">
<path d="M13.874 8.1417C13.8163 4.87796 11.1525 2.25 7.875 2.25C4.56127 2.25 1.875 4.93627 1.875 8.25C1.875 9.81379 2.47324 11.2378 3.45334 12.3058L3.00391 15.0096L5.67188 13.8637C6.84739 14.2546 7.95675 14.3523 9 14.1568" stroke="#666666" stroke-width="1.5" stroke-linecap="round" stroke-linejoin="round"/>
<path d="M5.67188 7.67512C6.13785 7.67512 6.51562 7.29457 6.51562 6.82511C6.51562 6.35569 6.13785 5.9751 5.67188 5.9751C5.2059 5.9751 4.82812 6.35569 4.82812 6.82511C4.82812 7.29457 5.2059 7.67512 5.67188 7.67512Z" fill="#666666"/>
<path d="M9.04688 7.67512C9.51285 7.67512 9.89062 7.29457 9.89062 6.82511C9.89062 6.35569 9.51285 5.9751 9.04688 5.9751C8.5809 5.9751 8.20312 6.35569 8.20312 6.82511C8.20312 7.29457 8.5809 7.67512 9.04688 7.67512Z" fill="#666666"/>
<path d="M14.5357 14.9735C13.8801 15.4613 13.0675 15.75 12.1875 15.75C10.0129 15.75 8.25 13.9871 8.25 11.8125C8.25 9.63788 10.0129 7.875 12.1875 7.875C14.3621 7.875 16.125 9.63788 16.125 11.8125C16.125 12.4124 15.9909 12.981 15.7509 13.4898" stroke="#666666" stroke-width="1.5" stroke-linecap="round" stroke-linejoin="round"/>
<path d="M15.7509 13.4897L16.125 15.7499L14.5356 14.9734" stroke="#666666" stroke-width="1.5" stroke-linecap="round" stroke-linejoin="round"/>
<path d="M13.3828 11.5499C13.0333 11.5499 12.75 11.2645 12.75 10.9124C12.75 10.5603 13.0333 10.2749 13.3828 10.2749C13.7323 10.2749 14.0156 10.5603 14.0156 10.9124C14.0156 11.2645 13.7323 11.5499 13.3828 11.5499Z" fill="#666666"/>
<path d="M10.8516 11.5499C10.5021 11.5499 10.2188 11.2645 10.2188 10.9124C10.2188 10.5603 10.5021 10.2749 10.8516 10.2749C11.2011 10.2749 11.4844 10.5603 11.4844 10.9124C11.4844 11.2645 11.2011 11.5499 10.8516 11.5499Z" fill="#666666"/>
</svg>
