<svg width="32" height="32" viewBox="0 0 32 32" fill="none" xmlns="http://www.w3.org/2000/svg">
<path d="M27 17V8.27273C27 7.40475 26.6444 6.57232 26.0115 5.95856C25.3786 5.3448 24.5201 5 23.625 5H12.375C11.4799 5 10.6214 5.3448 9.98851 5.95856C9.35558 6.57232 9 7.40475 9 8.27273V15.9091" stroke="black" stroke-width="1.75" stroke-linecap="round" stroke-linejoin="round"/>
<path d="M15.5 26H8.6C7.38 26 6.20998 25.4732 5.34731 24.5355C4.48464 23.5978 4 22.3261 4 21C4 19.6739 4.48464 18.4021 5.34731 17.4645C6.20998 16.5268 7.38 16 8.6 16H22.4C21.4902 16 20.6008 16.2932 19.8444 16.8427C19.0879 17.3921 18.4983 18.173 18.1502 19.0866C17.802 20.0002 17.7109 21.0055 17.8884 21.9754C18.0659 22.9454 18.504 23.8363 19.1473 24.5355C19.7906 25.2348 20.6103 25.711 21.5026 25.9039C22.3949 26.0968 23.3198 25.9978 24.1603 25.6194C25.0009 25.241 25.7193 24.6001 26.2248 23.7778C26.7302 22.9556 27 21.9889 27 21V17.25" stroke="black" stroke-width="1.75" stroke-linecap="round" stroke-linejoin="round"/>
</svg>
