<svg width="72" height="72" viewBox="0 0 72 72" fill="none" xmlns="http://www.w3.org/2000/svg">
<path d="M61 40.3398C61 54.3127 49.5833 62 35.5 62C21.4167 62 10 54.3127 10 40.3398C10 26.367 16.0624 10 30.1457 10C44.2289 10 61 26.367 61 40.3398Z" fill="#FF99D1"/>
<path d="M54.2812 37.4062V22.679C54.2812 21.2143 53.6812 19.8095 52.6131 18.7738C51.5451 17.7381 50.0964 17.1562 48.5859 17.1562H29.6016C28.0911 17.1562 26.6424 17.7381 25.5744 18.7738C24.5063 19.8095 23.9062 21.2143 23.9062 22.679V35.5653M34.875 52.5937H23.2313C21.1725 52.5937 19.1981 51.7048 17.7423 50.1225C16.2866 48.5401 15.4688 46.394 15.4688 44.1562C15.4688 41.9185 16.2866 39.7724 17.7423 38.19C19.1981 36.6077 21.1725 35.7188 23.2313 35.7188H46.5188C44.9835 35.7188 43.4827 36.2136 42.2061 37.1407C40.9296 38.0679 39.9347 39.3856 39.3471 40.9274C38.7596 42.4691 38.6059 44.1656 38.9054 45.8023C39.2049 47.439 39.9442 48.9425 41.0298 50.1225C42.1154 51.3025 43.4986 52.1061 45.0044 52.4316C46.5101 52.7572 48.0709 52.5901 49.4893 51.9515C50.9077 51.3129 52.1201 50.2314 52.973 48.8439C53.826 47.4563 54.2812 45.825 54.2812 44.1562V37.8281" stroke="black" stroke-width="3" stroke-linecap="round" stroke-linejoin="round"/>
</svg>
