<svg width="27" height="27" viewBox="0 0 27 27" fill="none" xmlns="http://www.w3.org/2000/svg">
<g clip-path="url(#clip0_21_952)">
<path d="M23.6276 14.2085L22.7914 6.25236C22.7082 5.46107 22.3141 4.73523 21.6958 4.23451C21.0774 3.73379 20.2855 3.49922 19.4942 3.58238L9.549 4.62767C8.7577 4.71084 8.03186 5.10494 7.53114 5.72327C7.03042 6.34161 6.79585 7.13353 6.87902 7.92482L7.61071 14.8865" stroke="black" stroke-width="1.5" stroke-linecap="round" stroke-linejoin="round"/>
<path d="M14.4143 22.2155L8.44713 22.8427C7.39207 22.9535 6.33618 22.6408 5.51173 21.9732C4.68728 21.3055 4.16182 20.3377 4.05093 19.2827C3.94004 18.2276 4.25281 17.1717 4.92043 16.3473C5.58805 15.5228 6.55585 14.9974 7.6109 14.8865L19.5452 13.6321C18.7584 13.7148 18.0138 14.029 17.4055 14.5349C16.7973 15.0407 16.3527 15.7156 16.128 16.4742C15.9033 17.2327 15.9086 18.0409 16.1432 18.7964C16.3778 19.5519 16.8312 20.2209 17.446 20.7188C18.0608 21.2167 18.8095 21.5211 19.5973 21.5934C20.3851 21.6658 21.1767 21.503 21.8719 21.1255C22.5672 20.748 23.1349 20.1728 23.5032 19.4727C23.8716 18.7725 24.0241 17.9789 23.9414 17.1921L23.6278 14.2085" stroke="black" stroke-width="1.5" stroke-linecap="round" stroke-linejoin="round"/>
</g>
<defs>
<clipPath id="clip0_21_952">
<rect width="24" height="24" fill="white" transform="translate(0.284668 2.58487) rotate(-6)"/>
</clipPath>
</defs>
</svg>
